<svg xmlns="http://www.w3.org/2000/svg" xmlns:xlink="http://www.w3.org/1999/xlink" id="processonSvg1000" viewBox="30.0 9.0 812.0 288.0" width="812.0" height="288.0"><defs id="ProcessOnDefs1001"/><g id="ProcessOnG1002"><path id="ProcessOnPath1003" d="M30.0 9.0H842.0V297.0H30.0V9.0Z" fill="none"/><g id="ProcessOnG1004"><g id="ProcessOnG1005" transform="matrix(1.0,0.0,0.0,1.0,593.0,49.0)" opacity="1.0"><path id="ProcessOnPath1006" d="M23.0 0.0L206.0 0.0C236.66666666666666 0.0 236.66666666666666 69.0 206.0 69.0L23.0 69.0C-7.666666666666667 69.0 -7.666666666666667 0.0 23.0 0.0Z" stroke="#323232" stroke-width="2.0" stroke-dasharray="none" opacity="1.0" fill="#ffffff"/></g><g id="ProcessOnG1007" transform="matrix(1.0,0.0,0.0,1.0,50.0,29.0)" opacity="1.0"><path id="ProcessOnPath1008" d="M0.0 33.25L0.0 0.0L450.0 0.0L450.0 33.25Q337.5 23.75 225.0 33.25Q112.5 42.75 0.0 33.25Z" stroke="#323232" stroke-width="2.0" stroke-dasharray="none" opacity="1.0" fill="#ffffff"/><g id="ProcessOnG1009" transform="matrix(1.0,0.0,0.0,1.0,0.0,8.975000000000001)"><text id="ProcessOnText1010" fill="#000000" font-weight="normal" font-style="normal" text-decoration="blink" font-family="微软雅黑" text-anchor="middle" font-size="13" x="225.0" y="13.325">lava-web用户名密码default:default8943217</text></g></g><g id="ProcessOnG1011" transform="matrix(1.0,0.0,0.0,1.0,53.0,91.0)" opacity="1.0"><path id="ProcessOnPath1012" d="M0.0 62.125L0.0 0.0L444.0 0.0L444.0 62.125Q333.0 44.375 222.0 62.125Q111.0 79.875 0.0 62.125Z" stroke="#323232" stroke-width="2.0" stroke-dasharray="none" opacity="1.0" fill="#ffffff"/><g id="ProcessOnG1013" transform="matrix(1.0,0.0,0.0,1.0,0.0,7.574999999999999)"><text id="ProcessOnText1014" fill="#000000" font-weight="normal" font-style="normal" text-decoration="blink" font-family="微软雅黑" text-anchor="middle" font-size="13" x="222.0" y="13.325">lava-tool auth-add http://zhaoshijie@114.118.4.74:800</text><text id="ProcessOnText1015" fill="#000000" font-weight="normal" font-style="normal" text-decoration="blink" font-family="微软雅黑" text-anchor="middle" font-size="13" x="222.0" y="29.575">添加tokens</text><text id="ProcessOnText1016" fill="#000000" font-weight="normal" font-style="normal" text-decoration="blink" font-family="微软雅黑" text-anchor="middle" font-size="13" x="222.0" y="45.825"></text></g></g><g id="ProcessOnG1017" transform="matrix(1.0,0.0,0.0,1.0,65.0,183.0)" opacity="1.0"><path id="ProcessOnPath1018" d="M0.0 82.25L0.0 0.0L432.0 0.0L432.0 82.25Q324.0 58.75 216.0 82.25Q108.0 105.75 0.0 82.25Z" stroke="#323232" stroke-width="2.0" stroke-dasharray="none" opacity="1.0" fill="#ffffff"/><g id="ProcessOnG1019" transform="matrix(1.0,0.0,0.0,1.0,0.0,34.175000000000004)"><text id="ProcessOnText1020" fill="#000000" font-weight="normal" font-style="normal" text-decoration="blink" font-family="微软雅黑" text-anchor="middle" font-size="13" x="216.0" y="13.325">可以设定不同代码版本对应的device_type用以随时测试应用</text></g></g></g></g></svg>